<svg version="1" xmlns="http://www.w3.org/2000/svg" width="1000" height="1000" viewBox="0 0 750.000000 750.000000"><path d="M443.3 135.7c50.2 73.3 80 117 80.4 117.8.2.6-14.8 23.4-33.3 50.5-18.5 27.2-39.7 58.4-47.1 69.2L429.9 393H528.6l19.5-33.1c10.7-18.3 19.9-33.8 20.4-34.6.8-1.1 5.9 6.6 21.8 33.1l20.8 34.6h98.8l-47-69c-25.8-38-46.9-69.4-46.9-69.9 0-.4 20.2-30.4 44.9-66.5l45-65.6h-98.6l-18.9 32.6c-16 27.9-18.9 32.4-20 31-.7-1-9-15.6-18.5-32.7L532.5 122h-98.6l9.4 13.7zM31 267.5V324h123v328h135V324h124V211H31v56.5z"/></svg>